HIERARCHY
ROOT Hips
{
	OFFSET 0.000000 0.000000 0.000000
	CHANNELS 6 Xposition Yposition Zposition Zrotation Yrotation Xrotation 
	JOINT LowerBack
	{
		OFFSET 0.000000 0.000000 0.000000
		CHANNELS 3 Zrotation Yrotation Xrotation
		JOINT Spine
		{
			OFFSET 0.028270 2.035590 -0.193380
			CHANNELS 3 Zrotation Yrotation Xrotation
			JOINT Spine1
			{
				OFFSET 0.056720 2.048850 -0.042750
				CHANNELS 3 Zrotation Yrotation Xrotation
				JOINT Neck
				{
					OFFSET 0.000000 0.000000 0.000000
					CHANNELS 3 Zrotation Yrotation Xrotation
					JOINT Neck1
					{
						OFFSET -0.054170 1.746240 0.172020
						CHANNELS 3 Zrotation Yrotation Xrotation
						JOINT Head
						{
							OFFSET 0.104070 1.761360 -0.123970
							CHANNELS 3 Zrotation Yrotation Xrotation
							End Site
							{
								OFFSET 0.000000 0.000000 0.000000
							}
						}
					}
				}
				JOINT LeftShoulder
				{
					OFFSET 0.000000 0.000000 0.000000
					CHANNELS 3 Zrotation Yrotation Xrotation
					JOINT LeftArm
					{
						OFFSET 3.362410 1.200890 -0.311210
						CHANNELS 3 Zrotation Yrotation Xrotation
						JOINT LeftForeArm
						{
							OFFSET 4.983000 -0.000000 -0.000000
							CHANNELS 3 Zrotation Yrotation Xrotation
							JOINT LeftHand
							{
								OFFSET 3.483560 -0.000000 -0.000000
								CHANNELS 3 Zrotation Yrotation Xrotation
								JOINT LeftFingerBase
								{
									OFFSET 0.000000 0.000000 0.000000
									CHANNELS 3 Zrotation Yrotation Xrotation
									JOINT LeftHandIndex1
									{
										OFFSET 0.715260 -0.000000 -0.000000
										CHANNELS 3 Zrotation Yrotation Xrotation
										End Site
										{
											OFFSET 0.000000 0.000000 0.000000
										}
									}
								}
								JOINT LThumb
								{
									OFFSET 0.000000 0.000000 0.000000
									CHANNELS 3 Zrotation Yrotation Xrotation
									End Site
									{
										OFFSET 0.000000 0.000000 0.000000
									}
								}
							}
						}
					}
				}
				JOINT RightShoulder
				{
					OFFSET 0.000000 0.000000 0.000000
					CHANNELS 3 Zrotation Yrotation Xrotation
					JOINT RightArm
					{
						OFFSET -3.136600 1.374050 -0.404650
						CHANNELS 3 Zrotation Yrotation Xrotation
						JOINT RightForeArm
						{
							OFFSET -5.241900 -0.000000 -0.000000
							CHANNELS 3 Zrotation Yrotation Xrotation
							JOINT RightHand
							{
								OFFSET -3.444170 -0.000000 -0.000000
								CHANNELS 3 Zrotation Yrotation Xrotation
								JOINT RightFingerBase
								{
									OFFSET 0.000000 0.000000 0.000000
									CHANNELS 3 Zrotation Yrotation Xrotation
									JOINT RightHandIndex1
									{
										OFFSET -0.622530 -0.000000 -0.000000
										CHANNELS 3 Zrotation Yrotation Xrotation
										End Site
										{
											OFFSET 0.000000 0.000000 0.000000
										}
									}
								}
								JOINT RThumb
								{
									OFFSET 0.000000 0.000000 0.000000
									CHANNELS 3 Zrotation Yrotation Xrotation
									End Site
									{
										OFFSET 0.000000 0.000000 0.000000
									}
								}
							}
						}
					}
				}
			}
		}
	}
}
}
MOTION
Frames: 16
Frame Time: 0.008333
4.651713 20.819824 0.908166 22.834693 -86.247407 2.727278 0.338395 -1.445613 -7.062152 -0.106645 -1.611419 -5.034814 -3.398108 -1.583111 -4.326654 2.362864 -4.521136 2.777409 -1.452328 -0.267774 2.938192 0.000000 0.000000 0.000000 13.715474 1.865412 -3.686784 -20.428993 -47.792811 -47.903648 177.735897 -75.044113 179.667232 22.866043 -2.222414 -0.637489 -0.303763 0.889114 -0.000000 0.000000 0.000000 0.000000 0.000000 0.000000 0.000000 -4.637652 -4.747705 -5.767367 25.584589 61.211102 -39.387746 -176.813601 70.930404 179.657771 -25.143819 13.058666 -3.176847 0.248217 -0.963161 -0.000000 0.000000 0.000000 0.000000 0.000000 0.000000 0.000000 
4.431935 20.951285 0.895841 21.867220 -86.096024 3.757338 0.452381 -1.485624 -6.655880 -0.100410 -1.650870 -4.891773 -3.474945 -1.621378 -4.043295 2.559660 -4.568048 2.704513 -1.510903 -0.268869 2.906853 0.000000 0.000000 0.000000 13.541304 2.107402 -3.474875 -21.304303 -46.312759 -46.949391 177.746519 -73.690269 179.668132 23.010335 -2.115196 -0.618469 -0.324035 0.882546 -0.000000 0.000000 0.000000 0.000000 0.000000 0.000000 0.000000 -4.416287 -5.050076 -5.646650 26.274997 60.320746 -38.652872 -176.686328 68.797474 179.656435 -25.467276 13.280040 -3.274528 0.271344 -0.971035 -0.000000 0.000000 0.000000 0.000000 0.000000 0.000000 0.000000 
4.210731 21.072244 0.884097 21.055719 -85.950580 4.695455 0.564970 -1.514926 -6.314948 -0.094122 -1.681194 -4.759972 -3.551449 -1.650689 -3.756748 2.762886 -4.622874 2.613829 -1.570138 -0.269773 2.871165 0.000000 0.000000 0.000000 13.352751 2.332325 -3.270398 -22.222608 -44.882425 -45.903556 177.784338 -72.538673 179.669317 23.140221 -2.006207 -0.598238 -0.343629 0.875622 -0.000000 0.000000 0.000000 0.000000 0.000000 0.000000 0.000000 -4.194593 -5.326004 -5.506625 27.011060 59.382039 -37.839229 -176.609232 66.864168 179.656065 -25.727062 13.513530 -3.368199 0.294530 -0.979455 -0.000000 0.000000 0.000000 0.000000 0.000000 0.000000 0.000000 
3.988016 21.181689 0.872775 20.419123 -85.816468 5.518018 0.674105 -1.533411 -6.037342 -0.088627 -1.702176 -4.640317 -3.629301 -1.670660 -3.470559 2.968908 -4.690752 2.503595 -1.629681 -0.270479 2.830738 0.000000 0.000000 0.000000 13.151600 2.535742 -3.072489 -23.150836 -43.488585 -44.776388 177.844587 -71.577350 179.670759 23.260161 -1.891900 -0.576197 -0.362491 0.868183 -0.000000 0.000000 0.000000 0.000000 0.000000 0.000000 0.000000 -3.972924 -5.574095 -5.350957 27.794390 58.402775 -36.956498 -176.580960 65.156994 179.656632 -25.920907 13.743410 -3.453263 0.317107 -0.987972 -0.000000 0.000000 0.000000 0.000000 0.000000 0.000000 0.000000 
3.764224 21.278961 0.861763 19.951506 -85.695717 6.214257 0.778988 -1.542274 -5.810289 -0.084535 -1.714635 -4.531717 -3.710110 -1.681895 -3.189365 3.173831 -4.775649 2.374242 -1.689637 -0.271029 2.785678 0.000000 0.000000 0.000000 12.942307 2.711192 -2.880206 -24.061756 -42.112016 -43.579458 177.922587 -70.785640 179.672413 23.375081 -1.775697 -0.553249 -0.380682 0.860215 -0.000000 0.000000 0.000000 0.000000 0.000000 0.000000 0.000000 -3.749259 -5.794073 -5.183996 28.618099 57.393105 -36.018173 -176.597373 63.694578 179.658063 -26.052849 13.953094 -3.525620 0.338486 -0.995993 -0.000000 0.000000 0.000000 0.000000 0.000000 0.000000 0.000000 
3.539626 21.363387 0.850965 19.629533 -85.589363 6.793147 0.881012 -1.542996 -5.618868 -0.081901 -1.719752 -4.432370 -3.794971 -1.685370 -2.917031 3.372982 -4.879676 2.228063 -1.750260 -0.271489 2.736517 0.000000 0.000000 0.000000 12.729490 2.854060 -2.692395 -24.935450 -40.732230 -42.321396 178.014062 -70.135017 179.674251 23.489595 -1.659841 -0.529898 -0.398384 0.851677 -0.000000 0.000000 0.000000 0.000000 0.000000 0.000000 0.000000 -3.521927 -5.986414 -5.010207 29.475026 56.364035 -35.034373 -176.652490 62.488099 179.660236 -26.131212 14.127743 -3.582268 0.358185 -1.002882 -0.000000 0.000000 0.000000 0.000000 0.000000 0.000000 0.000000 
3.314434 21.434932 0.840327 19.419853 -85.497253 7.274413 0.982603 -1.537668 -5.447320 -0.080378 -1.719359 -4.340013 -3.884395 -1.682747 -2.656684 3.562197 -5.003302 2.068816 -1.811951 -0.271942 2.684140 0.000000 0.000000 0.000000 12.517555 2.961006 -2.507985 -25.760415 -39.329000 -41.008622 178.115539 -69.596293 179.676279 23.606112 -1.547654 -0.507046 -0.415771 0.842554 -0.000000 0.000000 0.000000 0.000000 0.000000 0.000000 0.000000 -3.288610 -6.152627 -4.833841 30.356154 55.327191 -34.012693 -176.739092 61.539037 179.663006 -26.168893 14.255314 -3.621615 0.375923 -1.008030 -0.000000 0.000000 0.000000 0.000000 0.000000 0.000000 0.000000 
3.088930 21.493357 0.829797 19.277312 -85.418507 7.690831 1.087459 -1.528465 -5.281648 -0.079138 -1.715511 -4.252408 -3.978176 -1.675958 -2.410460 3.737667 -5.145709 1.900636 -1.875057 -0.272468 2.629532 0.000000 0.000000 0.000000 12.310018 3.031786 -2.326193 -26.532601 -37.884804 -39.645527 178.224233 -69.142248 179.678541 23.724502 -1.442058 -0.485089 -0.432968 0.832835 -0.000000 0.000000 0.000000 0.000000 0.000000 0.000000 0.000000 -3.047673 -6.294729 -4.658798 31.252572 54.293333 -32.958021 -176.849661 60.842410 179.666206 -26.181297 14.327393 -3.643159 0.391604 -1.010918 -0.000000 0.000000 0.000000 0.000000 0.000000 0.000000 0.000000 
2.863256 21.539139 0.819407 19.150534 -85.352759 8.086187 1.200112 -1.517303 -5.112019 -0.077029 -1.710177 -4.167842 -4.075617 -1.666903 -2.179331 3.896146 -5.304437 1.727592 -1.939935 -0.273137 2.573680 0.000000 0.000000 0.000000 12.108739 3.069456 -2.146708 -27.254867 -36.388455 -38.234228 178.337860 -68.744764 179.681097 23.841783 -1.346621 -0.464935 -0.450049 0.822556 -0.000000 0.000000 0.000000 0.000000 0.000000 0.000000 0.000000 -2.797840 -6.414604 -4.488203 32.156315 53.271666 -31.873056 -176.977295 60.389052 179.669678 -26.183974 14.338481 -3.647904 0.405264 -1.011136 -0.000000 0.000000 0.000000 0.000000 0.000000 0.000000 0.000000 
2.637445 21.572618 0.809210 18.990450 -85.300261 8.508224 1.324693 -1.505759 -4.933633 -0.072788 -1.705103 -4.085334 -4.175410 -1.657356 -1.963029 4.035505 -5.476686 1.552595 -2.006556 -0.273983 2.517290 0.000000 0.000000 0.000000 11.914467 3.080342 -1.969453 -27.934769 -34.834103 -36.776474 178.454918 -68.382461 179.684052 23.951597 -1.264210 -0.447179 -0.466962 0.811759 -0.000000 0.000000 0.000000 0.000000 0.000000 0.000000 0.000000 -2.539384 -6.514475 -4.324400 33.061429 52.269594 -30.759189 -177.115885 60.162868 179.673283 -26.191799 14.286337 -3.637148 0.417107 -1.008439 -0.000000 0.000000 0.000000 0.000000 0.000000 0.000000 0.000000 
2.411401 21.594041 0.799214 18.752668 -85.262519 9.003968 1.465014 -1.494945 -4.745930 -0.065086 -1.701659 -4.004615 -4.275748 -1.648783 -1.760516 4.154307 -5.659269 1.377087 -2.074502 -0.274991 2.460706 0.000000 0.000000 0.000000 11.727531 3.073975 -1.794799 -28.584341 -33.222422 -35.273580 178.574218 -68.036916 179.687499 24.046737 -1.198240 -0.432318 -0.483609 0.800533 -0.000000 0.000000 0.000000 0.000000 0.000000 0.000000 0.000000 -2.274581 -6.596182 -4.168933 33.963797 51.292177 -29.617889 -177.260561 60.144561 179.676934 -26.215119 14.170175 -3.612193 0.427370 -1.002727 -0.000000 0.000000 0.000000 0.000000 0.000000 0.000000 0.000000 
2.185071 21.603758 0.789524 18.401575 -85.242204 9.614945 1.622823 -1.485399 -4.551660 -0.053001 -1.700567 -3.926080 -4.374587 -1.642080 -1.570542 4.252113 -5.849162 1.200839 -2.142879 -0.276101 2.403859 0.000000 0.000000 0.000000 11.548701 3.060817 -1.623382 -29.217698 -31.558569 -33.728506 178.694907 -67.696058 179.691525 24.119372 -1.151611 -0.421054 -0.499812 0.788985 -0.000000 0.000000 0.000000 0.000000 0.000000 0.000000 0.000000 -2.007506 -6.660904 -4.022383 34.861683 50.341155 -28.452466 -177.407798 60.312948 179.680588 -26.258997 13.990777 -3.573937 0.436271 -0.994036 -0.000000 0.000000 0.000000 0.000000 0.000000 0.000000 0.000000 
1.958331 21.601916 0.780143 17.925904 -85.243698 10.361216 1.797224 -1.477197 -4.356723 -0.036128 -1.701964 -3.850819 -4.469581 -1.637629 -1.391911 4.329317 -6.043092 1.022448 -2.210239 -0.277205 2.346398 0.000000 0.000000 0.000000 11.380178 3.051374 -1.455920 -29.849950 -29.849599 -32.145955 178.816217 -67.350251 179.696184 24.163168 -1.124948 -0.413486 -0.515406 0.777196 -0.000000 0.000000 0.000000 0.000000 0.000000 0.000000 0.000000 -1.744878 -6.708656 -3.884554 35.756204 49.415618 -27.266713 -177.555104 60.642192 179.684247 -26.322811 13.749962 -3.522583 0.444018 -0.982561 -0.000000 0.000000 0.000000 0.000000 0.000000 0.000000 0.000000 
1.731332 21.588620 0.771145 17.248425 -85.272042 11.318465 1.991111 -1.469467 -4.158742 -0.013409 -1.705066 -3.778603 -4.558442 -1.634840 -1.225044 4.385844 -6.238402 0.840037 -2.275029 -0.278180 2.287819 0.000000 0.000000 0.000000 11.224941 3.054032 -1.293440 -30.496913 -28.103608 -30.532565 178.937175 -66.989966 179.701442 24.176886 -1.125979 -0.411414 -0.530310 0.765456 -0.000000 0.000000 0.000000 0.000000 0.000000 0.000000 0.000000 -1.494978 -6.738774 -3.754633 36.646754 48.513891 -26.068379 -177.700950 61.108188 179.687953 -26.400061 13.451832 -3.458027 0.450702 -0.968603 -0.000000 0.000000 0.000000 0.000000 0.000000 0.000000 0.000000 
1.503884 21.563533 0.762435 16.444214 -85.332782 12.424154 2.193533 -1.462075 -3.968182 0.013326 -1.709147 -3.711621 -4.638846 -1.633340 -1.069582 4.424040 -6.431735 0.651641 -2.335171 -0.278881 2.227668 0.000000 0.000000 0.000000 11.090060 3.073959 -1.136818 -31.172749 -26.325167 -28.895065 179.056858 -66.609244 179.707273 24.159815 -1.148440 -0.413539 -0.544454 0.753717 -0.000000 0.000000 0.000000 0.000000 0.000000 0.000000 0.000000 -1.266914 -6.749264 -3.630996 37.539729 47.629053 -24.862587 -177.844646 61.680468 179.691772 -26.479523 13.102509 -3.380270 0.456426 -0.952647 -0.000000 0.000000 0.000000 0.000000 0.000000 0.000000 0.000000 
1.276114 21.526531 0.754139 15.372262 -85.433138 13.810845 2.409584 -1.452804 -3.775747 0.045402 -1.712034 -3.648686 -4.708685 -1.631124 -0.928025 4.443687 -6.619672 0.456309 -2.388721 -0.279167 2.165664 0.000000 0.000000 0.000000 10.980317 3.114037 -0.986890 -31.891248 -24.518354 -27.241952 179.174121 -66.203557 179.713521 24.119774 -1.200812 -0.421862 -0.557896 0.742326 -0.000000 0.000000 0.000000 0.000000 0.000000 0.000000 0.000000 -1.072330 -6.736681 -3.512369 38.436059 46.755366 -23.658924 -177.985577 62.333204 179.695766 -26.548279 12.713142 -3.290513 0.461176 -0.935258 -0.000000 0.000000 0.000000 0.000000 0.000000 0.000000 0.000000 
